<svg xmlns:inkscape="http://www.inkscape.org/namespaces/inkscape" xmlns:sodipodi="http://sodipodi.sourceforge.net/DTD/sodipodi-0.dtd" xmlns="http://www.w3.org/2000/svg" xmlns:svg="http://www.w3.org/2000/svg" height="381.17239" version="1.1" viewBox="0 0 1869.3955 381.17239" width="1869.3955" id="svg1" sodipodi:docname="quark-a11y-logo.svg" inkscape:version="1.4.2 (ebf0e940, 2025-05-08)" inkscape:export-filename="quark-a11y-logo.svg" inkscape:export-xdpi="96" inkscape:export-ydpi="96"><defs id="defs1"><rect x="467.77832" y="157.73921" width="625.51752" height="122.38387" id="rect3"/></defs><g id="g1" transform="translate(-15.411727,-15.728605)"><text fill="#ffffff" text-anchor="middle" x="600" y="200" id="text1">QUARK-A11Y</text></g><text xml:space="preserve" style="text-align:start;writing-mode:lr-tb;direction:ltr;text-anchor:start;fill:#000000" x="536.67548" y="180.08559" id="text2"><tspan sodipodi:role="line" id="tspan1" x="536.67548" y="180.08559"/></text><text xml:space="preserve" id="text3" style="text-align:start;writing-mode:lr-tb;direction:ltr;white-space:pre;shape-inside:url(#rect3);display:inline;fill:#000000" transform="translate(-15.411727,-15.728605)"/><g id="Layer_1_1" transform="matrix(1.9944422,0,0,1.9944422,28.993893,3.4396076)"><g id="g5"><path d="m 98.4134,69.506 c 1.0857,-1.0845 1.0857,-2.8422 0,-3.9258 -1.0861,-1.0845 -2.8442,-1.0845 -3.9299,0 -1.0862,1.0836 -1.0862,2.8413 0,3.9258 1.0857,1.0835 2.8438,1.0835 3.9299,0 z" fill="#221e1f" id="path1"/><path d="m 88.6113,71.4462 c -1.0862,1.0835 -1.0862,2.8413 0,3.9258 1.0842,1.0835 2.8438,1.0835 3.9299,0 1.0842,-1.0845 1.0842,-2.8423 0,-3.9258 -1.0861,-1.0845 -2.8457,-1.0845 -3.9299,0 z" fill="#221e1f" id="path2"/><path d="m 105.6614,72.8903 c -1.6986,-1.6973 -4.452,-1.6958 -6.1496,0 l -3.6169,3.613 c -1.6991,1.6973 -1.6991,4.4478 0,6.1431 l 3.971,3.9682 c 1.6985,1.6973 4.452,1.6958 6.1496,0 l 3.6169,-3.613 c 1.6986,-1.6973 1.6986,-4.4478 0,-6.1446 z" fill="#221e1f" id="path3"/><path d="m 140.0328,59.4342 c 4.5892,-8.7306 -1.9027,-13.8302 -6.365,-18.016 -7.1479,-6.7119 -14.2772,-9.6136 -22.4199,-0.32 -8.1373,9.2941 -2.9673,20.0728 4.476,25.3929 7.4467,5.32 19.7132,1.6713 24.3089,-7.0569 z m -12.3296,-3.5803 c -2.8677,-3.4336 2.4932,-9.6674 5.8566,-5.945 6.1951,6.8582 -2.9839,9.3785 -5.8566,5.945 z" fill="#221e1f" id="path4"/><path d="M 92.7791,0.6418 C 41.5387,0.6418 0,42.1363 0,93.3177 0,144.503 41.5387,186 92.7791,186 c 51.2373,0 92.7756,-41.497 92.7756,-92.6823 0,-51.1814 -41.5383,-92.6759 -92.7756,-92.6759 z m 50.1698,107.8653 c -9.6748,-6.387 -15.2032,-11.7837 -20.019,-21.4598 -3.2932,6.6295 -10.9826,16.4876 -23.9534,24.2425 -6.4753,20.1231 -37.2786,58.6344 -47.2478,53.1753 -2.9518,-1.6148 -3.5124,-3.7419 -2.8458,-5.9362 0.715,-5.5011 12.1068,-18.1443 12.1068,-18.1443 0,0 0.2408,2.6529 3.8851,8.2418 -4.8135,-14.9274 7.9532,-33.3459 11.3352,-39.6158 5.3144,-1.6919 5.6993,-8.5082 5.6993,-8.5082 0.3399,-10.5362 -4.3715,-18.1643 -8.9373,-22.7263 3.2804,3.9995 4.3422,10.0435 4.498,15.5787 0,0.0083 0,0.0195 0,0.0308 0.0166,0.6254 0.0166,1.2391 0.0141,1.8509 -0.1558,4.5819 -1.5432,10.9113 -4.5121,10.9113 l 0.0088,0.04 c -3.0523,-0.1307 -6.8206,0.5201 -10.1875,1.5719 l -7.4433,1.7768 c 0,0 3.9695,-0.1815 6.113,1.6685 -2.3872,3.8833 -7.6929,8.7023 -13.6106,11.4401 -8.61,3.9888 -11.0846,-3.9477 -6.7131,-9.1092 1.0734,-1.2616 2.1576,-2.3251 3.1827,-3.1964 -0.6598,-0.682 -1.0759,-1.5953 -1.1853,-2.7544 -10e-4,-0.006 -0.0054,-0.0117 -0.0068,-0.0176 -0.6002,-2.6334 -0.2691,-6.0523 3.4611,-11.4861 0.7365,-1.1503 1.6194,-2.3295 2.6772,-3.5272 0.0338,-0.041 0.0621,-0.079 0.0963,-0.119 0.0454,-0.0551 0.0962,-0.1073 0.1431,-0.161 0.0268,-0.0298 0.0522,-0.0595 0.0805,-0.0907 C 49.8543,91.881 50.1376,91.5854 50.4404,91.3 54.8855,86.7517 61.9074,82.0215 72.972,77.7761 85.8759,58.8293 90.6014,55.2753 90.6014,55.2753 92.0299,53.8161 94.5269,52.0018 95.4446,51.5393 88.706,39.8425 87.3454,23.3534 89.1109,18.91 c -0.1431,0.2406 -0.2745,0.4864 -0.3839,0.7411 0.6544,-1.5216 1.093,-2.0109 1.7728,-2.8115 1.8402,-2.1749 8.0777,-3.3145 10.3174,1.2928 1.1931,2.4563 1.4183,5.6381 1.3787,8.0238 -4.9394,-0.2572 -9.4198,5.3766 -9.4198,5.3766 0,0 4.0911,-1.9285 9.1737,-1.9626 0,0 1.3547,1.1767 3.045,3.3867 -2.2822,4.2809 -6.0339,13.3496 -3.3171,22.8701 0.4503,1.8763 1.1311,3.4887 1.9765,4.8605 0.0322,0.0591 0.0591,0.1186 0.0918,0.1796 0.0679,0.0888 0.1289,0.1624 0.1924,0.2444 4.4921,6.7558 12.7256,7.5461 12.7256,7.5461 -3.8762,-1.9319 -7.0331,-5.0088 -9.0887,-8.7394 -1.0685,-1.9953 -1.7229,-3.6799 -2.1249,-5.0088 -2.1801,-8.4116 1.0295,-13.3219 2.8668,-16.6139 4.2274,-6.5505 11.9286,-10.5158 20.206,-9.5713 11.617,1.3241 19.9609,11.8056 18.633,23.4073 -0.8097,7.0881 -5.0425,12.9511 -10.858,16.1417 1.3987,3.7814 -0.0962,8.3662 -0.0962,8.3662 3.5221,4.4258 3.6774,6.9773 3.5558,9.3473 -4.4764,-0.7522 -8.8254,2.2656 -8.8254,2.2656 0,0 8.6359,-2.0592 13.653,2.411 3.2628,3.5057 5.439,6.6739 6.7357,9.0136 1.8573,3.337 10.4815,3.575 9.4993,9.5766 -0.9826,5.9928 -7.56,6.0494 -17.8715,-0.7464 z" fill="#221e1f" id="path5"/></g></g><path style="font-weight:600;font-size:271.186px;font-family:Metropolis;-inkscape-font-specification:'Metropolis Semi-Bold';stroke-width:5.47944" d="m 614.83316,167.3382 c 0,-50.76173 -43.39733,-93.370021 -94.68509,-93.370021 -51.55078,0 -94.94811,42.608291 -94.94811,93.370021 0,50.76174 43.39733,93.63304 94.94811,93.63304 21.56716,0 41.55622,-7.62741 57.60009,-19.98907 l 19.46305,16.8329 17.35893,-20.25209 -18.14797,-15.78085 c 11.57262,-15.25482 18.41099,-34.19184 18.41099,-54.44393 z m -94.68509,63.64943 c -33.40281,0 -61.54532,-28.93156 -61.54532,-63.64943 0,-34.45485 28.14251,-63.38641 61.54532,-63.38641 33.13977,0 61.01928,28.93156 61.01928,63.38641 0,12.09865 -3.41919,23.40826 -9.2055,33.13978 l -24.1973,-21.04113 -17.35893,20.2521 23.40825,20.51509 c -9.73152,6.83837 -21.30414,10.78359 -33.6658,10.78359 z M 736.08254,121.83676 v 86.00562 c -2.10411,14.46578 -16.04386,25.77539 -32.87677,25.77539 -16.8329,0 -28.66854,-13.15071 -28.66854,-31.5617 v -80.21931 h -31.03567 v 86.53165 c 0,30.77266 20.77813,52.60283 50.49872,52.60283 17.88496,0 33.66581,-8.67946 42.08226,-21.30415 v 18.14798 h 32.08773 V 121.83676 Z m 126.51004,-3.15617 c -17.09592,0 -34.98088,4.73425 -54.18091,14.20276 l 11.04659,22.3562 c 11.57262,-5.78631 23.93429,-10.25755 36.82199,-10.25755 24.72332,0 33.40279,15.25482 33.40279,31.03567 v 3.6822 c -12.36166,-4.73426 -25.77539,-7.3644 -38.13705,-7.3644 -30.50965,0 -55.49599,18.41099 -55.49599,45.23843 0,26.30142 21.83018,43.39734 50.76173,43.39734 15.78085,0 32.87677,-6.83837 42.87131,-19.46305 v 16.30688 h 31.29869 v -81.7974 c 0,-34.45485 -22.3562,-57.33708 -58.38915,-57.33708 z m -8.67947,118.88239 c -15.25481,0 -26.56442,-8.15343 -26.56442,-21.04113 0,-12.88769 12.88769,-21.83018 28.93156,-21.83018 12.09864,0 23.40825,1.8411 33.40279,5.26028 v 15.25483 c -3.68219,14.46578 -20.25209,22.3562 -35.76993,22.3562 z m 134.66341,-89.42481 v -26.30141 h -32.08776 v 135.97831 h 32.08776 v -68.64669 c 0,-25.77539 19.46298,-43.13433 48.65758,-43.13433 v -27.35346 c -22.3562,0 -39.97815,11.30961 -48.65758,29.45758 z m 200.67968,-26.30141 h -37.8741 l -58.9152,64.43846 V 73.968179 h -32.0877 V 257.81507 h 32.0877 v -33.92882 l 19.2001,-20.25209 38.4001,54.18091 h 37.348 l -54.1809,-75.22204 z m 14.7289,77.85219 h 70.7507 v -28.14252 h -70.7507 z m 239.869,58.12612 h 36.296 L 1404.665,77.124349 h -36.559 l -75.485,180.690721 h 36.559 l 13.6767,-32.61375 h 87.3207 z m -89.1618,-61.01928 31.8248,-76.01109 31.8247,76.01109 z m 179.9019,61.01928 h 32.6137 V 77.124349 h -26.3014 l -50.7617,34.454861 13.4137,23.14523 31.0357,-19.72606 z m 103.6273,0 h 32.6138 V 77.124349 h -26.3014 l -50.7617,34.454861 13.4137,23.14523 31.0356,-19.72606 z m 99.6822,47.34254 c 20.5151,-0.26301 36.2959,-12.09864 46.5535,-37.87403 l 57.6001,-145.44682 h -33.1398 l -37.348,101.52346 -39.7151,-101.52346 h -33.9289 l 57.6001,137.03037 -5.7863,12.09864 c -3.9452,6.57536 -9.7315,8.94249 -17.3589,8.94249 -4.9973,0 -11.5726,-1.8411 -17.3589,-4.99727 l -6.8384,23.14524 c 8.1534,4.47124 19.463,7.10138 29.7206,7.10138 z" id="text4" aria-label="Quark-A11y"/></svg>