<svg version="1.1" viewBox="0 0 2084.2 369.69" xmlns="http://www.w3.org/2000/svg"><g stroke-width="1.9944"><path d="m196.28 137.35c2.1654-2.163 2.1654-5.6686 0-7.8298-2.1662-2.163-5.6726-2.163-7.838 0-2.1664 2.1612-2.1664 5.6668 0 7.8298 2.1654 2.161 5.6718 2.161 7.838 0z"/><path d="m176.73 141.22c-2.1664 2.161-2.1664 5.6668 0 7.8298 2.1624 2.161 5.6718 2.161 7.838 0 2.1624-2.163 2.1624-5.6688 0-7.8298-2.1662-2.163-5.6756-2.163-7.838 0z"/><path d="m210.74 144.1c-3.3878-3.3852-8.8793-3.3822-12.265 0l-7.2137 7.2059c-3.3888 3.3852-3.3888 8.8709 0 12.252l7.9199 7.9144c3.3876 3.3852 8.8792 3.3822 12.265 0l7.2137-7.2059c3.3878-3.3852 3.3878-8.8709 0-12.255z"/><path d="m279.29 117.26c9.1529-17.413-3.7948-27.584-12.695-35.932-14.256-13.386-28.475-19.174-44.715-0.63822-16.229 18.537-5.9181 40.034 8.9271 50.645 14.852 10.61 39.317 3.3333 48.483-14.075zm-24.591-7.1407c-5.7195-6.8481 4.9725-19.281 11.681-11.857 12.356 13.678-5.9512 18.705-11.681 11.857z"/><path d="m185.04 0c-102.2 0-185.04 82.758-185.04 184.84 0 102.09 82.847 184.85 185.04 184.85 102.19 0 185.04-82.763 185.04-184.85 0-102.08-82.846-184.84-185.04-184.84zm100.06 215.13c-19.296-12.739-30.322-23.502-39.927-42.8-6.5681 13.222-21.904 32.884-47.774 48.35-12.915 40.134-74.35 116.94-94.233 106.06-5.8872-3.2206-7.0053-7.463-5.6758-11.839 1.426-10.972 24.146-36.188 24.146-36.188s0.48026 5.291 7.7486 16.438c-9.6002-29.772 15.862-66.506 22.607-79.011 10.599-3.3744 11.367-16.969 11.367-16.969 0.67792-21.014-8.7187-36.228-17.825-45.326 6.5426 7.9768 8.6603 20.031 8.971 31.071v0.0614c0.0331 1.2473 0.0331 2.4713 0.0281 3.6915-0.31074 9.1383-3.0778 21.762-8.9991 21.762l0.0175 0.0798c-6.0876-0.26068-13.603 1.0373-20.318 3.1351l-14.845 3.5437s7.9169-0.362 12.192 3.3277c-4.7611 7.745-15.343 17.356-27.146 22.817-17.172 7.9554-22.108-7.8735-13.389-18.168 2.1408-2.5162 4.3032-4.6373 6.3477-6.375-1.3159-1.3602-2.1458-3.1817-2.364-5.4935-2e-3 -0.012-0.01077-0.0233-0.01356-0.0351-1.1971-5.2522-0.5367-12.071 6.903-22.908 1.4689-2.2942 3.2298-4.6461 5.3395-7.0348 0.06741-0.0818 0.12386-0.15756 0.19206-0.23734 0.09055-0.10989 0.19186-0.214 0.2854-0.3211 0.05345-0.0594 0.10411-0.11867 0.16055-0.1809 0.53092-0.60332 1.0959-1.1929 1.6999-1.7621 8.8655-9.0713 22.87-18.505 44.938-26.973 25.736-37.788 35.161-44.877 35.161-44.877 2.8491-2.9103 7.8292-6.5288 9.6595-7.4512-13.44-23.329-16.153-56.215-12.632-65.077-0.28541 0.47986-0.54747 0.9701-0.76567 1.4781 1.3052-3.0347 2.1799-4.0106 3.5358-5.6074 3.6702-4.3377 16.111-6.6106 20.577 2.5784 2.3796 4.8989 2.8287 11.245 2.7497 16.003-9.8514-0.51297-18.787 10.723-18.787 10.723s8.1595-3.8463 18.296-3.9143c0 0 2.7019 2.3469 6.0731 6.7546-4.5517 8.538-12.034 26.625-6.6158 45.613 0.89809 3.7422 2.2559 6.958 3.942 9.694 0.0642 0.11787 0.11787 0.23654 0.18309 0.3582 0.13542 0.17711 0.25708 0.3239 0.38373 0.48744 8.9592 13.474 25.38 15.05 25.38 15.05-7.7308-3.8531-14.027-9.9898-18.127-17.43-2.1311-3.9795-3.4362-7.3393-4.238-9.9898-4.3481-16.776 2.0533-26.57 5.7177-33.135 8.4313-13.065 23.791-20.973 40.3-19.089 23.169 2.6408 39.811 23.546 37.162 46.685-1.6149 14.137-10.057 25.83-21.656 32.194 2.7896 7.5418-0.19186 16.686-0.19186 16.686 7.0246 8.827 7.3344 13.916 7.0918 18.643-8.9279-1.5002-17.602 4.5186-17.602 4.5186s17.224-4.107 27.23 4.8086c6.5075 6.9919 10.848 13.311 13.434 17.977 3.7043 6.6555 20.905 7.1301 18.946 19.1-1.9597 11.952-15.078 12.065-35.644-1.4886z"/></g><g transform="translate(0 -18.393)"><path d="m632.61 203.1c0-52.678-45.036-96.892-98.261-96.892-53.497 0-98.532 44.217-98.532 96.892 0 52.678 45.036 97.171 98.532 97.171 22.381 0 43.125-7.9153 59.775-20.743l20.197 17.468 18.014-21.016-18.833-16.376c12.009-15.83 19.106-35.483 19.106-56.499zm-98.261 66.052c-34.664 0-63.869-30.024-63.869-66.052 0-35.756 29.205-65.779 63.869-65.779 34.391 0 63.323 30.023 63.323 65.779 0 12.555-3.5483 24.292-9.5531 34.391l-25.11-21.835-18.014 21.016 24.292 21.289c-10.099 7.0965-22.108 11.191-34.937 11.191z" stroke-width="1.4216"/><path d="m743.93 300.27c49.418 0 84.121-34.981 84.121-84.677v-109.38h-34.426v108.27c0 31.649-20.545 54.415-49.696 54.415-28.873 0-49.418-22.766-49.418-54.415v-108.27h-34.704v109.38c0 49.696 34.981 84.677 84.121 84.677z" stroke-width="1.446"/><g transform="matrix(.87219 0 0 .87219 55.701 38.377)" fill="#221e1f" stroke-width="2.2798"><path d="m1029.1 81.767c-1.0714-2.4248-3.4741-3.9974-6.1329-3.9974h-33.407c-2.6719 0-5.0857 1.5861-6.146 4.0362l-90.161 209.14c-0.89072 2.0509-0.68597 4.4356 0.55451 6.3062 1.2382 1.882 3.3312 3.0187 5.5892 3.0187h26.401c2.6722 0 5.086-1.5995 6.1458-4.0376l74.425-172.64 75.765 172.67c1.071 2.4246 3.4739 3.9997 6.1193 3.9997h26.503c2.2603 0 4.378-1.1367 5.6027-3.0187 1.2403-1.8952 1.4342-4.282 0.5298-6.3575z"/><path d="m1799.2 81.767c-1.0711-2.4248-3.474-3.9974-6.1331-3.9974h-33.406c-2.672 0-5.0858 1.5861-6.146 4.0362l-90.161 209.14c-0.8907 2.0509-0.6859 4.4356 0.5545 6.3062 1.2382 1.882 3.3311 3.0187 5.589 3.0187h26.401c2.6721 0 5.0861-1.5995 6.1458-4.0376l74.424-172.64 75.765 172.67c1.0709 2.4246 3.4739 3.9997 6.1192 3.9997h26.504c2.2602 0 4.3779-1.1367 5.6026-3.0187 1.2402-1.8952 1.4342-4.282 0.5299-6.3575z"/><path d="m1287.9 223.76 1.4473-0.69622c26.374-12.728 43.414-39.747 43.414-68.841 0-42.158-34.34-76.455-76.542-76.455h-96.875c-3.6922 0-6.6872 2.9986-6.6872 6.6867v209.12c0 3.7013 2.995 6.6933 6.6872 6.6933h24.256c3.6922 0 6.6894-2.992 6.6894-6.6933v-178.21h65.929c21.458 0 38.912 17.43 38.912 38.863 0 17.873-12.15 33.374-29.577 37.683-3.1374 0.79405-6.275 1.1944-9.3349 1.1944h-24.256c-2.5185 0-4.8164 1.4172-5.9523 3.6616-1.1489 2.2445-0.9283 4.9338 0.5678 6.9712l68.771 93.798c1.2538 1.7174 3.2534 2.7362 5.3843 2.7362h30.145c2.5161 0 4.8253-1.4194 5.9609-3.6637 1.1492-2.2556 0.9177-4.9517-0.5678-6.976z"/></g><path d="m1246.9 300.27h35.31v-55.366l26.27-28.248 64.123 83.614h43.502l-83.331-108.47 77.682-85.591h-43.219l-85.026 94.912v-94.912h-35.31z" stroke-width="1.4712"/><path d="m1414.5 218.1h74.723v-29.723h-74.723z" stroke-width="1.4468"/><g transform="matrix(.87219 0 0 .87219 55.701 38.377)" stroke-width="1.6868"><path d="m1932.4 300.27h40.16v-222.5h-32.387l-62.508 42.427 16.518 28.501 38.217-24.29z"/><path d="m2043.5 300.27h40.16v-222.5h-32.387l-62.507 42.427 16.517 28.501 38.217-24.29z"/><path d="m2196.9 300.27h41.132v-83.559l87.769-138.94h-45.99l-62.183 100.72-61.212-100.72h-47.609l88.093 138.94z"/></g></g></svg>
